<svg xmlns="http://www.w3.org/2000/svg" viewBox="0 0 24 24" fill="currentColor">
  <!-- Cute poop icon with eyes - baby app friendly -->
  <!-- Top swirl -->
  <path d="M12 2c-1.5 0-2.5 1-2.5 2.2 0 0-.5-.2-1.2.3-.7.5-.8 1.5-.3 2.2-1 .3-1.8 1.2-1.8 2.3 0 .5.2 1 .4 1.3C5.2 11 4 12.5 4 14.2c0 2.5 1.8 4.3 4 4.7.5 1.2 1.8 2.1 3.2 2.1h1.6c1.4 0 2.7-.9 3.2-2.1 2.2-.4 4-2.2 4-4.7 0-1.7-1.2-3.2-2.6-3.9.2-.3.4-.8.4-1.3 0-1.1-.8-2-1.8-2.3.5-.7.4-1.7-.3-2.2-.7-.5-1.2-.3-1.2-.3C14.5 3 13.5 2 12 2z"/>
  <!-- Left eye -->
  <circle cx="9.5" cy="13.5" r="1.2" fill="white"/>
  <circle cx="9.5" cy="13.5" r="0.6" fill="#333"/>
  <!-- Right eye -->
  <circle cx="14.5" cy="13.5" r="1.2" fill="white"/>
  <circle cx="14.5" cy="13.5" r="0.6" fill="#333"/>
  <!-- Smile -->
  <path d="M10 16.5c0 0 1 1.2 2 1.2s2-1.2 2-1.2" fill="none" stroke="white" stroke-width="0.8" stroke-linecap="round"/>
</svg>
